<?xml version="1.0" encoding="UTF-8" standalone="no"?>
<!-- Created with Inkscape (http://www.inkscape.org/) -->

<svg
   version="1.1"
   id="svg1"
   width="650"
   height="160"
   viewBox="0 0 650 160"
   sodipodi:docname="aukse logo updated.svg"
   inkscape:version="1.4.3 (0d15f75, 2025-12-25)"
   xmlns:inkscape="http://www.inkscape.org/namespaces/inkscape"
   xmlns:sodipodi="http://sodipodi.sourceforge.net/DTD/sodipodi-0.dtd"
   xmlns="http://www.w3.org/2000/svg"
   xmlns:svg="http://www.w3.org/2000/svg">
  <defs
     id="defs1" />
  <sodipodi:namedview
     id="namedview1"
     pagecolor="#ffffff"
     bordercolor="#000000"
     borderopacity="0.25"
     inkscape:showpageshadow="2"
     inkscape:pageopacity="0.0"
     inkscape:pagecheckerboard="0"
     inkscape:deskcolor="#d1d1d1"
     inkscape:zoom="0.65423492"
     inkscape:cx="201.76239"
     inkscape:cy="134.50826"
     inkscape:window-width="1680"
     inkscape:window-height="911"
     inkscape:window-x="0"
     inkscape:window-y="25"
     inkscape:window-maximized="0"
     inkscape:current-layer="g1" />
  <g
     inkscape:groupmode="layer"
     inkscape:label="Image"
     id="g1">
    <path
       style="fill:#000000"
       d="m 200.32326,139.89198 c -38.08229,-10.71928 -43.09692,-68.63032 -7.46785,-86.24183 13.49876,-6.67245 31.53741,-5.26985 42.80125,3.32803 l 4.43645,3.38642 0.0153,-3.7434 c 0.0245,-5.99194 0.64646,-6.36475 10.07034,-6.03649 l 8.41436,0.2931 0.27789,41.999998 c 0.33854,51.166262 1.20124,46.500002 -8.59694,46.500002 -8.91854,0 -10.18095,-0.76853 -10.18095,-6.19793 v -3.79793 l -6.07386,4.47132 c -9.28696,6.83667 -22.46857,9.19897 -33.69599,6.03871 z m 23.68571,-18.73786 c 19.23898,-5.86255 21.6163,-39.76163 3.5317,-50.35991 -18.20028,-10.66607 -38.80638,2.10855 -38.84803,24.083599 -0.0399,21.046291 15.22004,32.400091 35.31633,26.276311 z m 68.16551,18.69676 C 272.79252,134.41973 270.59311,128.76634 270.59311,84.377808 V 50.87781 l 8.09606,-0.28795 c 10.95332,-0.38959 10.23703,-2.50682 10.5963,31.32096 0.40868,38.48045 3.79861,44.61495 22.3561,40.45613 13.55072,-3.03678 14.93443,-6.93068 15.01438,-42.25198 0.0725,-32.0428 -0.68411,-29.92095 10.53014,-29.53014 l 8.40702,0.29298 v 43.999999 44.000001 l -7.8448,0.29377 c -9.04703,0.33879 -10.6552,-0.4943 -10.6552,-5.51981 v -3.48114 l -3.69919,3.24793 c -7.78424,6.83465 -20.46202,9.44672 -31.21944,6.43232 z m 167.18833,0.53951 c -22.99928,-4.90162 -35.94141,-30.6684 -14.97,-29.80411 l 7.07379,0.29153 2.06325,3.91474 c 6.57047,12.46656 34.35963,12.28108 34.53146,-0.23048 0.0805,-5.86257 -3.58624,-7.83409 -21.70958,-11.67271 -26.04618,-5.516711 -37.0292,-20.58422 -27.88863,-38.26013 11.95911,-23.12638 61.15485,-19.02618 66.7001,5.55909 2.17601,9.64752 -14.73552,12.653218 -19.44748,3.45642 -4.61336,-9.00434 -26.98701,-9.86732 -30.00554,-1.15736 -2.52988,7.29994 1.19467,9.972298 19.48242,13.978548 23.94836,5.24631 31.90051,12.022581 31.90051,27.183422 0,19.07747 -23.06243,31.99827 -47.7303,26.74104 z m 87.2303,-0.35389 c -47.77237,-12.41217 -44.35979,-83.93705 4.3256,-90.66115 27.49234,-3.79706 51.1744,16.78714 51.1744,44.480249 0,7.760191 1.1393,7.522211 -36.01241,7.522211 -37.48029,0 -35.62647,-0.52944 -30.85968,8.81338 8.23321,16.13698 30.30327,18.02923 42.5927,3.65183 l 3.93494,-4.60349 6.22887,0.70471 c 11.11435,1.25745 12.37182,4.59097 5.27422,13.9818 -10.01012,13.24438 -30.48279,20.31326 -46.65864,16.11046 z m 34.5,-56.615582 c 0,-10.556308 -20.47974,-20.174338 -33.25203,-15.616358 -7.05576,2.51795 -17.3171,14.21768 -15.31673,17.463758 1.13165,1.83638 48.56876,0.032 48.56876,-1.8474 z M 41.593104,139.31685 c -16.32995,-4.79332 -19.814997,-28.4398 -5.65906,-38.39745 l 4.32397,-3.041591 24.76623,-0.5 c 29.181656,-0.58914 26.30203,0.50498 36.111106,-13.720461 6.50718,-9.436918 12.18241,-11.905588 18.99187,-8.261278 2.404,1.28658 18.00331,24.71933 21.60578,32.45546 8.45112,18.1484 -10.57179,38.64155 -28.36966,30.56227 -4.53443,-2.05839 -6.18906,-4.11395 -16.53047,-20.53599 -10.302196,-16.35977 -14.430636,-16.28719 -24.096916,0.42359 -11.98784,20.72425 -18.09496,24.84538 -31.14285,21.01545 z m 316.614466,-1.30113 c -0.81909,-0.98694 -1.05938,-17.71844 -0.87245,-60.75 l 0.25799,-59.38791 8.91543,-0.29135 c 11.4558,-0.37436 10.55135,-3.49498 10.56926,36.46711 l 0.0153,34.175768 5.27991,-5.67577 c 2.90395,-3.121668 8.38444,-9.275758 12.17887,-13.675758 3.79443,-4.4 9.1656,-10.3625 11.93593,-13.25 l 5.03697,-5.25 h 9.67717 c 14.98515,0 14.93929,0.19287 -5.25393,22.09353 -7.34521,7.96628 -14.17533,15.438468 -15.17806,16.604868 -1.80455,2.09909 -1.64896,2.33768 15.25,23.385472 21.13069,26.31845 21.26111,26.91613 5.87315,26.91613 -10.34776,0 -7.96877,1.84522 -24.26855,-18.82346 -13.78958,-17.48566 -12.08645,-16.39855 -16.81969,-10.73608 l -3.71176,4.44045 v 11.35955 c 0,7.50186 -0.40752,11.76706 -1.2,12.55954 -1.73384,1.73384 -16.22227,1.60105 -17.68554,-0.16209 z M 74.593104,75.49138 C 50.819504,64.5406 58.886724,29.25685 85.179004,29.19166 111.125,29.12736 118.34126,65.89075 94.35025,75.91483 89.445934,77.96399 79.498154,77.75078 74.593104,75.49138 Z"
       id="path1" />
  </g>
</svg>
